<?xml version="1.0" encoding="UTF-8" standalone="no"?>
<svg
   xmlns:dc="http://purl.org/dc/elements/1.1/"
   xmlns:cc="http://creativecommons.org/ns#"
   xmlns:rdf="http://www.w3.org/1999/02/22-rdf-syntax-ns#"
   xmlns:svg="http://www.w3.org/2000/svg"
   xmlns="http://www.w3.org/2000/svg"
   xmlns:sodipodi="http://sodipodi.sourceforge.net/DTD/sodipodi-0.dtd"
   xmlns:inkscape="http://www.inkscape.org/namespaces/inkscape"
   sodipodi:docname="1.svg"
   inkscape:version="1.0 (4035a4fb49, 2020-05-01)"
   width="800px"
   height="600px"
   viewBox="0 0 800 600"
   version="1.1"
   id="SVGRoot">
  <defs
     id="defs34" />
  <sodipodi:namedview
     inkscape:window-maximized="1"
     inkscape:window-y="203"
     inkscape:window-x="1016"
     inkscape:window-height="1017"
     inkscape:window-width="1920"
     showgrid="false"
     inkscape:document-rotation="0"
     inkscape:current-layer="layer1"
     inkscape:document-units="px"
     inkscape:cy="217.14286"
     inkscape:cx="400"
     inkscape:zoom="0.88"
     inkscape:pageshadow="2"
     inkscape:pageopacity="0.0"
     borderopacity="1.0"
     bordercolor="#666666"
     pagecolor="#ffffff"
     id="base" />
  <metadata
     id="metadata37">
    <rdf:RDF>
      <cc:Work
         rdf:about="">
        <dc:format>image/svg+xml</dc:format>
        <dc:type
           rdf:resource="http://purl.org/dc/dcmitype/StillImage" />
        <dc:title></dc:title>
      </cc:Work>
    </rdf:RDF>
  </metadata>
  <g
     id="layer1"
     inkscape:groupmode="layer"
     inkscape:label="Lag 1">
    <rect
       y="54.285717"
       x="1457.1428"
       height="500"
       width="28.571428"
       id="rect47"
       style="fill:#000000" />
    <rect
       y="54.285717"
       x="1485.7142"
       height="28.571428"
       width="448.57144"
       id="rect49"
       style="fill:#000000" />
    <rect
       y="82.85714"
       x="1911.4286"
       height="122.85715"
       width="22.857151"
       id="rect51"
       style="fill:#000000" />
    <ellipse
       ry="75.714287"
       rx="84.285713"
       cy="215.71428"
       cx="1921.4286"
       id="path55"
       style="fill:#000000" />
    <path
       transform="matrix(1,0,0,1.5221842,1328.5714,-94.373441)"
       inkscape:transform-center-y="-40.520471"
       inkscape:transform-center-x="1.4285714"
       d="M 605.71429,197.14285 697.92856,366.76008 504.9286,361.81136 Z"
       inkscape:randomized="0"
       inkscape:rounded="0"
       inkscape:flatsided="true"
       sodipodi:arg2="-0.49796337"
       sodipodi:arg1="-1.5451609"
       sodipodi:r2="55.732597"
       sodipodi:r1="111.4652"
       sodipodi:cy="308.57143"
       sodipodi:cx="602.85715"
       sodipodi:sides="3"
       id="path79"
       style="fill:#000000"
       sodipodi:type="star" />
    <rect
       y="433.51297"
       x="1887.7858"
       height="66.487045"
       width="23.642832"
       id="rect83"
       style="fill:#000000;stroke-width:1.25249" />
    <rect
       style="fill:#000000;stroke-width:1.25249"
       id="rect83-9"
       width="23.642832"
       height="66.487045"
       x="1960"
       y="433.51297" />
    <rect
       y="562.85712"
       x="16.493456"
       height="31.428572"
       width="763.2467"
       id="rect100"
       style="fill:#000000;stroke-width:1.09944" />
    <rect
       y="120"
       x="500"
       height="8.5714283"
       width="145.71428"
       id="rect110"
       style="fill:#000000" />
    <path
       transform="matrix(0.57882494,0,0,0.54382594,244.87324,59.445918)"
       inkscape:transform-center-y="0.77689446"
       inkscape:transform-center-x="-7.5528118"
       d="m 500,120 -83.23992,53.77288 -4.94872,-98.974335 z"
       inkscape:randomized="0"
       inkscape:rounded="0"
       inkscape:flatsided="true"
       sodipodi:arg2="0.99723916"
       sodipodi:arg1="-0.049958396"
       sodipodi:r2="28.607121"
       sodipodi:r1="57.214241"
       sodipodi:cy="122.85714"
       sodipodi:cx="442.85715"
       sodipodi:sides="3"
       id="path112"
       style="fill:#c8ab37"
       sodipodi:type="star" />
    <path
       inkscape:transform-center-x="-6.4285714"
       d="M 605.71429,25.714287 567.14286,47.983512 V 3.4450612 Z"
       inkscape:randomized="0"
       inkscape:rounded="0"
       inkscape:flatsided="true"
       sodipodi:arg2="1.0471976"
       sodipodi:arg1="0"
       sodipodi:r2="12.857143"
       sodipodi:r1="25.714287"
       sodipodi:cy="25.714287"
       sodipodi:cx="580"
       sodipodi:sides="3"
       id="path114"
       style="fill:#000000"
       sodipodi:type="star" />
    <ellipse
       ry="21.428572"
       rx="22.857143"
       cy="46.201302"
       cx="590.77924"
       id="path121"
       style="fill:#000000" />
    <path
       d="m 575.56012,73.917207 c -2.46409,3.670035 -4.74467,7.472568 -6.95743,11.299668 -1.29828,1.381512 -1.86167,3.237332 -2.90119,4.77597 -0.40165,0.594504 -0.8882,1.128485 -1.29152,1.721864 -0.92693,1.598325 -1.89866,3.151077 -2.75772,4.789666 -0.56604,1.589697 -1.65192,2.9028 -2.65305,4.246085 -1.10226,2.09884 -2.58163,3.99227 -4.34396,5.57107 -5.20253,3.39485 -3.49807,2.25902 12.27793,-7.142971 0.36424,-0.217077 -0.74149,0.419447 -1.13984,0.564731 -0.42861,0.156316 -0.87554,0.26954 -1.32705,0.33496 -1.14151,0.16539 -2.45055,0.0992 -3.59309,0.0829 -3.28068,-0.193127 -6.58906,-0.14442 -9.83554,-0.698621 -2.20876,-0.326321 -4.33826,-0.99042 -6.50766,-1.491624 -0.35565,-0.08688 -0.71129,-0.173754 -1.06693,-0.260631 0,0 -13.93135,9.545706 -13.93135,9.545706 v 0 c 0.37723,0.12067 0.75446,0.24135 1.1317,0.36202 2.21183,0.40576 4.31202,1.19421 6.54146,1.5074 3.31871,0.67734 6.67926,0.66922 10.05537,0.85963 1.69486,0.084 3.54916,0.34934 5.24352,0.14266 6.61463,-0.80685 12.79717,-5.75149 17.72643,-10.262457 1.61727,-1.81622 3.00523,-3.784227 4.29325,-5.844435 0.97524,-1.413027 1.87952,-2.849744 2.58439,-4.421853 0.92683,-1.548172 1.76005,-3.151161 2.79437,-4.63601 1.46846,-2.11033 2.57723,-4.445623 4.03756,-6.565109 2.24745,-3.806554 4.43844,-7.65869 7.05079,-11.231914 0,0 -15.43044,6.751335 -15.43044,6.751335 z"
       id="path125"
       style="fill:#000000" />
    <path
       d="m 586.62211,75.425197 c -0.65882,3.320251 -1.21639,6.638846 -2.17598,9.885036 -0.59877,2.614459 -1.66998,5.07447 -2.44139,7.634709 -0.79079,1.997279 -1.92642,3.782907 -3.01108,5.614597 -0.96603,2.002661 -2.56255,3.627881 -3.76818,5.506271 -1.51363,2.32045 -3.33087,4.41401 -4.94591,6.65496 -0.92567,1.72616 -2.14996,3.23966 -3.32548,4.79905 -1.4623,1.87848 -2.75101,3.89018 -4.07657,5.86947 -1.27921,2.26239 -2.62602,4.48541 -3.54303,6.92473 -0.88178,2.25618 -0.0231,4.65115 -0.27525,6.96738 -0.23053,1.96582 -0.50751,3.88329 -0.97759,5.80281 -0.70888,2.87815 -2.07444,5.4633 -3.49275,8.04028 -1.64959,2.94174 -3.44301,5.75445 -5.58088,8.36509 -1.91401,2.07843 -4.0497,3.83874 -6.45112,5.32611 1.10915,-0.47224 -3.37075,2.24962 -2.49239,1.74329 28.46934,-16.4113 5.08244,-3.53738 -4.09462,2.43709 0,0 15.74992,-6.10937 15.74992,-6.10937 v 0 c 0.87417,-0.52426 2.96349,-1.77362 1.87185,-1.14998 -4.47791,2.55815 -17.80608,10.41217 -13.41051,7.71498 6.0665,-3.72249 12.36572,-6.6117 18.03778,-10.76705 2.32977,-1.677 4.47169,-3.55293 6.25529,-5.81868 2.05313,-2.72117 3.79014,-5.63717 5.44333,-8.61631 1.44188,-2.70472 2.69644,-5.48558 3.39093,-8.48701 0.44998,-2.00308 0.67802,-4.04689 0.84851,-6.09138 -0.0243,-2.16834 -0.46799,-4.37733 0.50306,-6.42183 1.04993,-2.29597 2.31593,-4.48949 3.66903,-6.61957 1.31981,-1.98334 2.69989,-3.92825 4.15616,-5.81378 1.14009,-1.56524 2.24196,-3.15034 3.29327,-4.77777 1.69705,-2.18914 3.34184,-4.422031 4.89805,-6.713524 1.32642,-1.829421 2.79128,-3.564941 3.77662,-5.614201 1.14821,-1.874837 2.09468,-3.877053 2.80653,-5.958151 0.84714,-2.546707 1.78401,-5.066808 2.40552,-7.683253 0.87308,-3.339219 1.37873,-6.760355 2.07716,-10.138581 0,0 -15.12028,7.494587 -15.12028,7.494587 z"
       id="path127"
       style="fill:#000000" />
    <circle
       r="0.56761366"
       cy="60.227272"
       cx="972.72729"
       style="fill:#000000;stroke:#000000"
       id="path129" />
    <path
       d="m 586.89811,72.605073 c -2.59942,3.136542 -5.11278,6.337753 -7.81293,9.391553 -1.65656,2.271819 -3.7838,4.136552 -5.53741,6.320532 -1.44275,1.377009 -2.83695,2.745408 -4.13685,4.268049 -2.34514,2.437004 -4.46702,4.996907 -6.23094,7.885553 -1.47913,2.21543 -3.03757,4.47542 -4.04338,6.95433 -0.48656,2.06995 -1.04781,4.08593 -2.05536,5.97155 -0.82889,2.11928 -2.58991,3.64565 -3.84616,5.48383 -0.72677,1.67628 -1.62496,2.19075 -0.46082,3.94991 0.31762,0.17103 0.60101,0.4335 0.95286,0.51311 0.5113,0.11568 1.18406,-0.27708 1.58083,-0.50583 5.11806,-2.95065 10.24592,-5.88492 15.33111,-8.89187 0.67304,-0.39797 1.26127,-0.92751 1.92745,-1.33686 2.36856,-1.97328 4.20842,-4.4657 6.39044,-6.62128 1.45088,-1.7109 2.70144,-3.55225 4.00854,-5.37062 1.04401,-1.657357 2.11359,-3.281458 3.05191,-5.005243 0.81308,-1.642895 1.6319,-3.276564 2.30189,-5.001827 0.68032,-2.086227 1.01505,-4.319069 1.92172,-6.321637 0.71796,-1.67273 1.24618,-3.513861 2.26303,-5.033476 1.11761,-1.675496 1.97434,-3.535174 3.1037,-5.196184 1.16128,-1.562366 1.96174,-3.339107 3.0498,-4.959356 1.47662,-1.922797 2.83392,-3.890702 3.26003,-6.307076 0.11939,-1.023506 0.0961,-2.054063 0.0852,-3.081792 0,0 -15.07067,7.664728 -15.07067,7.664728 v 0 c -0.0245,0.913836 -0.0312,1.833054 -0.26716,2.724277 -0.74293,2.159859 -2.25382,3.907522 -3.46765,5.815531 -0.98743,1.682354 -2.019,3.323629 -3.04472,4.982488 -0.9792,1.798103 -2.16796,3.462019 -3.09043,5.29162 -0.744,1.732282 -1.55818,3.430378 -2.14419,5.227281 -0.64233,2.089878 -1.17684,4.219202 -1.95575,6.262847 -0.74464,1.634626 -1.5289,3.242619 -2.40667,4.810239 -1.01448,1.629 -1.9619,3.29682 -3.09609,4.8508 -1.26714,1.77821 -2.55293,3.55529 -4.06575,5.13601 -2.022,2.24395 -4.0147,4.58667 -6.55266,6.26746 -4.88774,3.37652 -12.21057,7.21277 11.65627,-6.51748 0.0455,-0.0262 -2.06677,1.34904 -1.28252,1.60775 0.0683,0.17881 0.092,0.38176 0.20475,0.53644 0.11076,0.15198 0.18538,-0.32751 0.28763,-0.48534 0.36805,-0.56809 0.63506,-1.18776 1.0703,-1.71061 1.44188,-1.77387 2.78362,-3.64166 3.66457,-5.76551 0.82803,-1.96047 1.32884,-4.01415 2.0732,-6.00007 1.2115,-2.306751 2.55843,-4.543827 4.03589,-6.69032 1.89175,-2.768164 4.14147,-5.220994 6.41254,-7.681008 1.35587,-1.460279 2.87043,-2.76466 4.14251,-4.306014 1.86753,-2.039232 3.70238,-4.110584 5.43756,-6.264121 2.67585,-3.125926 5.2154,-6.362229 7.83613,-9.534015 0,0 -15.48172,6.671651 -15.48172,6.671651 z"
       id="path133"
       style="fill:#000000" />
    <path
       id="path145"
       d="m 598.65754,69.099307 20.66064,52.491603"
       style="fill:none;stroke:#000000;stroke-width:1px;stroke-linecap:butt;stroke-linejoin:miter;stroke-opacity:1" />
    <path
       id="path147"
       d="m 598.65754,69.099307 20.66064,52.491603"
       style="fill:none;stroke:#000000;stroke-width:1px;stroke-linecap:butt;stroke-linejoin:miter;stroke-opacity:1" />
    <path
       id="path149"
       d="m 586.62211,75.425197 32.69607,46.165713"
       style="fill:none;stroke:#000000;stroke-width:1px;stroke-linecap:butt;stroke-linejoin:miter;stroke-opacity:1" />
    <path
       id="path151"
       d="m 604.4583,98.540797 -7.47351,-10.440614 1.83513,-5.485729 1.83513,-5.485729 6.02539,15.548089 c 3.31397,8.551446 5.85124,15.718306 5.63839,15.926346 -0.21286,0.20804 -3.75009,-4.32003 -7.86053,-10.062363 z"
       style="fill:#000000;stroke-width:1.13636" />
    <path
       id="path153"
       d="m 567.21478,113.83399 -4.33726,7.5553"
       style="fill:none;stroke:#000000;stroke-width:1px;stroke-linecap:butt;stroke-linejoin:miter;stroke-opacity:1" />
    <rect
       y="113.39664"
       x="557.08124"
       height="14.27463"
       width="17.07575"
       id="rect157"
       style="fill:#000000" />
  </g>
</svg>
