<?xml version="1.0" encoding="UTF-8" standalone="no"?>
<svg
   xmlns:dc="http://purl.org/dc/elements/1.1/"
   xmlns:cc="http://creativecommons.org/ns#"
   xmlns:rdf="http://www.w3.org/1999/02/22-rdf-syntax-ns#"
   xmlns:svg="http://www.w3.org/2000/svg"
   xmlns="http://www.w3.org/2000/svg"
   xmlns:sodipodi="http://sodipodi.sourceforge.net/DTD/sodipodi-0.dtd"
   xmlns:inkscape="http://www.inkscape.org/namespaces/inkscape"
   id="SVGRoot"
   version="1.1"
   viewBox="0 0 800 600"
   height="600px"
   width="800px"
   inkscape:version="1.0 (4035a4fb49, 2020-05-01)"
   sodipodi:docname="4n.svg">
  <defs
     id="defs34" />
  <sodipodi:namedview
     id="base"
     pagecolor="#ffffff"
     bordercolor="#666666"
     borderopacity="1.0"
     inkscape:pageopacity="0.0"
     inkscape:pageshadow="2"
     inkscape:zoom="0.58"
     inkscape:cx="400"
     inkscape:cy="213.69458"
     inkscape:document-units="px"
     inkscape:current-layer="layer1"
     inkscape:document-rotation="0"
     showgrid="false"
     inkscape:window-width="1920"
     inkscape:window-height="1001"
     inkscape:window-x="-9"
     inkscape:window-y="-9"
     inkscape:window-maximized="1" />
  <metadata
     id="metadata37">
    <rdf:RDF>
      <cc:Work
         rdf:about="">
        <dc:format>image/svg+xml</dc:format>
        <dc:type
           rdf:resource="http://purl.org/dc/dcmitype/StillImage" />
        <dc:title></dc:title>
      </cc:Work>
    </rdf:RDF>
  </metadata>
  <g
     inkscape:label="Lag 1"
     inkscape:groupmode="layer"
     id="layer1">
    <rect
       style="fill:#000000"
       id="rect47"
       width="28.571428"
       height="500"
       x="186.45317"
       y="64.630547" />
    <rect
       style="fill:#000000;stroke-width:0.980594"
       id="rect49"
       width="431.33005"
       height="28.571428"
       x="186.45317"
       y="64.630547" />
    <rect
       style="fill:#000000"
       id="rect51"
       width="22.857151"
       height="122.85715"
       x="1911.4286"
       y="82.85714" />
    <ellipse
       style="fill:#000000"
       id="path55"
       cx="1921.4286"
       cy="215.71428"
       rx="84.285713"
       ry="75.714287" />
    <path
       sodipodi:type="star"
       style="fill:#000000"
       id="path79"
       sodipodi:sides="3"
       sodipodi:cx="602.85715"
       sodipodi:cy="308.57143"
       sodipodi:r1="111.4652"
       sodipodi:r2="55.732597"
       sodipodi:arg1="-1.5451609"
       sodipodi:arg2="-0.49796337"
       inkscape:flatsided="true"
       inkscape:rounded="0"
       inkscape:randomized="0"
       d="M 605.71429,197.14285 697.92856,366.76008 504.9286,361.81136 Z"
       inkscape:transform-center-x="1.4285714"
       inkscape:transform-center-y="-40.520471"
       transform="matrix(1,0,0,1.5221842,1328.5714,-94.373441)" />
    <rect
       style="fill:#000000;stroke-width:1.25249"
       id="rect83"
       width="23.642832"
       height="66.487045"
       x="1887.7858"
       y="433.51297" />
    <rect
       y="433.51297"
       x="1960"
       height="66.487045"
       width="23.642832"
       id="rect83-9"
       style="fill:#000000;stroke-width:1.25249" />
    <rect
       style="fill:#000000;stroke-width:1.09944"
       id="rect100"
       width="763.2467"
       height="31.428572"
       x="16.493456"
       y="562.85712" />
    <rect
       style="fill:#000000"
       id="rect110"
       width="145.71428"
       height="8.5714283"
       x="1032.7587"
       y="-162.75862" />
    <path
       sodipodi:type="star"
       style="fill:#c8ab37"
       id="path112"
       sodipodi:sides="3"
       sodipodi:cx="442.85715"
       sodipodi:cy="122.85714"
       sodipodi:r1="57.214241"
       sodipodi:r2="28.607121"
       sodipodi:arg1="-0.049958396"
       sodipodi:arg2="0.99723916"
       inkscape:flatsided="true"
       inkscape:rounded="0"
       inkscape:randomized="0"
       d="m 500,120 -83.23992,53.77288 -4.94872,-98.974335 z"
       inkscape:transform-center-x="-7.5528118"
       inkscape:transform-center-y="0.77689446"
       transform="matrix(0.57882494,0,0,0.54382594,777.63186,-223.3127)" />
    <path
       sodipodi:type="star"
       style="fill:#000000"
       id="path114"
       sodipodi:sides="3"
       sodipodi:cx="1112.7586"
       sodipodi:cy="-257.04433"
       sodipodi:r1="25.714287"
       sodipodi:r2="12.857143"
       sodipodi:arg1="0"
       sodipodi:arg2="1.0471976"
       inkscape:flatsided="true"
       inkscape:rounded="0"
       inkscape:randomized="0"
       d="m 1138.4728,-257.04434 -38.5714,22.26922 v -44.53845 z"
       inkscape:transform-center-x="-6.4285714" />
    <ellipse
       style="fill:#000000"
       id="path121"
       cx="1123.5378"
       cy="-236.55731"
       rx="22.857143"
       ry="21.428572" />
    <path
       style="fill:#000000"
       id="path125"
       d="m 1108.3187,-208.84141 c -2.464,3.67003 -4.7446,7.47256 -6.9574,11.29966 -1.2983,1.38152 -1.8617,3.23734 -2.9012,4.77597 -0.4016,0.59451 -0.8882,1.12849 -1.2915,1.72187 -0.9269,1.59832 -1.8987,3.15108 -2.7577,4.78966 -0.5661,1.5897 -1.6519,2.9028 -2.6531,4.24609 -1.1022,2.09884 -2.5816,3.99227 -4.3439,5.57107 -5.2026,3.39485 -3.4981,2.25902 12.2779,-7.14297 0.3642,-0.21708 -0.7415,0.41945 -1.1398,0.56473 -0.4286,0.15632 -0.8756,0.26954 -1.3271,0.33496 -1.1415,0.16539 -2.4505,0.0992 -3.5931,0.0829 -3.2807,-0.19313 -6.589,-0.14442 -9.8355,-0.69862 -2.2088,-0.32632 -4.3383,-0.99042 -6.5077,-1.49163 -0.3556,-0.0869 -0.7113,-0.17375 -1.0669,-0.26063 0,0 -13.9314,9.54571 -13.9314,9.54571 v 0 c 0.3773,0.12067 0.7545,0.24135 1.1317,0.36202 2.2119,0.40576 4.3121,1.19421 6.5415,1.5074 3.3187,0.67734 6.6793,0.66922 10.0554,0.85963 1.6948,0.084 3.5491,0.34934 5.2435,0.14266 6.6146,-0.80685 12.7972,-5.75149 17.7264,-10.26246 1.6173,-1.81622 3.0053,-3.78422 4.2933,-5.84443 0.9752,-1.41303 1.8795,-2.84975 2.5844,-4.42186 0.9268,-1.54817 1.76,-3.15116 2.7943,-4.63601 1.4685,-2.11033 2.5773,-4.44562 4.0376,-6.5651 2.2474,-3.80656 4.4384,-7.65869 7.0508,-11.23192 0,0 -15.4305,6.75134 -15.4305,6.75134 z" />
    <path
       style="fill:#000000"
       id="path127"
       d="m 1119.3807,-207.33342 c -0.6588,3.32025 -1.2164,6.63884 -2.1759,9.88503 -0.5988,2.61446 -1.67,5.07447 -2.4414,7.63471 -0.7908,1.99728 -1.9265,3.78291 -3.0111,5.6146 -0.966,2.00266 -2.5626,3.62788 -3.7682,5.50627 -1.5136,2.32045 -3.3309,4.41401 -4.9459,6.65496 -0.9257,1.72616 -2.15,3.23966 -3.3255,4.79905 -1.4623,1.87848 -2.751,3.89018 -4.0766,5.86947 -1.2792,2.26239 -2.626,4.48541 -3.543,6.92473 -0.8818,2.25618 -0.023,4.65115 -0.2752,6.96738 -0.2306,1.96582 -0.5075,3.88329 -0.9776,5.80281 -0.7089,2.87815 -2.0745,5.4633 -3.4928,8.04028 -1.6496,2.94174 -3.443,5.75445 -5.5809,8.36509 -1.914,2.07843 -4.0497,3.83874 -6.4511,5.32611 1.1092,-0.47224 -3.3707,2.24962 -2.4924,1.74329 28.4694,-16.4113 5.0825,-3.53738 -4.0946,2.43709 0,0 15.7499,-6.10937 15.7499,-6.10937 v 0 c 0.8742,-0.52426 2.9635,-1.77362 1.8719,-1.14998 -4.4779,2.55815 -17.8061,10.41217 -13.4105,7.71498 6.0665,-3.72249 12.3657,-6.6117 18.0378,-10.76705 2.3297,-1.677 4.4716,-3.55293 6.2552,-5.81868 2.0532,-2.72117 3.7902,-5.63717 5.4434,-8.61631 1.4419,-2.70472 2.6964,-5.48558 3.3909,-8.48701 0.45,-2.00308 0.678,-4.04689 0.8485,-6.09138 -0.024,-2.16834 -0.468,-4.37733 0.5031,-6.42183 1.0499,-2.29597 2.3159,-4.48949 3.669,-6.61957 1.3198,-1.98334 2.6999,-3.92825 4.1562,-5.81378 1.1401,-1.56524 2.2419,-3.15034 3.2932,-4.77777 1.6971,-2.18914 3.3419,-4.42203 4.8981,-6.71352 1.3264,-1.82943 2.7913,-3.56495 3.7766,-5.61421 1.1482,-1.87483 2.0947,-3.87705 2.8065,-5.95815 0.8472,-2.5467 1.784,-5.0668 2.4056,-7.68325 0.873,-3.33922 1.3787,-6.76035 2.0771,-10.13858 0,0 -15.1203,7.49459 -15.1203,7.49459 z" />
    <circle
       id="path129"
       style="fill:#000000;stroke:#000000"
       cx="972.72729"
       cy="60.227272"
       r="0.56761366" />
    <path
       style="fill:#000000"
       id="path133"
       d="m 1119.6567,-210.15355 c -2.5994,3.13654 -5.1127,6.33776 -7.8129,9.39156 -1.6566,2.27181 -3.7838,4.13655 -5.5374,6.32053 -1.4428,1.37701 -2.837,2.74541 -4.1369,4.26805 -2.3451,2.437 -4.467,4.9969 -6.2309,7.88555 -1.4791,2.21543 -3.0376,4.47542 -4.0434,6.95433 -0.4865,2.06995 -1.0478,4.08593 -2.0553,5.97155 -0.8289,2.11928 -2.5899,3.64565 -3.8462,5.48383 -0.7268,1.67628 -1.625,2.19075 -0.4608,3.94991 0.3176,0.17103 0.601,0.4335 0.9528,0.51311 0.5113,0.11568 1.1841,-0.27708 1.5809,-0.50583 5.118,-2.95065 10.2459,-5.88492 15.3311,-8.89187 0.673,-0.39797 1.2613,-0.92751 1.9274,-1.33686 2.3686,-1.97328 4.2085,-4.4657 6.3905,-6.62128 1.4509,-1.7109 2.7014,-3.55225 4.0085,-5.37062 1.044,-1.65736 2.1136,-3.28146 3.0519,-5.00524 0.8131,-1.6429 1.6319,-3.27657 2.3019,-5.00183 0.6803,-2.08623 1.0151,-4.31907 1.9217,-6.32164 0.718,-1.67273 1.2462,-3.51386 2.2631,-5.03347 1.1176,-1.6755 1.9743,-3.53518 3.1037,-5.19619 1.1612,-1.56236 1.9617,-3.3391 3.0498,-4.95935 1.4766,-1.9228 2.8339,-3.89071 3.26,-6.30708 0.1194,-1.02351 0.096,-2.05406 0.085,-3.08179 0,0 -15.0707,7.66473 -15.0707,7.66473 v 0 c -0.025,0.91383 -0.031,1.83305 -0.2671,2.72427 -0.743,2.15986 -2.2539,3.90753 -3.4677,5.81553 -0.9874,1.68236 -2.019,3.32363 -3.0447,4.98249 -0.9792,1.79811 -2.168,3.46202 -3.0904,5.29162 -0.744,1.73228 -1.5582,3.43038 -2.1442,5.22728 -0.6424,2.08988 -1.1769,4.21921 -1.9558,6.26285 -0.7446,1.63463 -1.5289,3.24262 -2.4066,4.81024 -1.0145,1.629 -1.9619,3.29682 -3.0961,4.8508 -1.2672,1.77821 -2.553,3.55529 -4.0658,5.13601 -2.022,2.24395 -4.0147,4.58667 -6.5526,6.26746 -4.8878,3.37652 -12.2106,7.21277 11.6562,-6.51748 0.045,-0.0262 -2.0667,1.34904 -1.2825,1.60775 0.068,0.17881 0.092,0.38176 0.2048,0.53644 0.1107,0.15198 0.1853,-0.32751 0.2876,-0.48534 0.368,-0.56809 0.635,-1.18776 1.0703,-1.71061 1.4419,-1.77387 2.7836,-3.64166 3.6646,-5.76551 0.828,-1.96047 1.3288,-4.01415 2.0732,-6.00007 1.2115,-2.30675 2.5584,-4.54383 4.0358,-6.69032 1.8918,-2.76816 4.1415,-5.22099 6.4126,-7.68101 1.3559,-1.46028 2.8704,-2.76466 4.1425,-4.30601 1.8675,-2.03923 3.7024,-4.11059 5.4376,-6.26412 2.6758,-3.12593 5.2154,-6.36223 7.8361,-9.53402 0,0 -15.4817,6.67165 -15.4817,6.67165 z" />
    <path
       style="fill:none;stroke:#000000;stroke-width:1px;stroke-linecap:butt;stroke-linejoin:miter;stroke-opacity:1"
       d="m 1131.4162,-213.65931 20.6606,52.4916"
       id="path145" />
    <path
       style="fill:none;stroke:#000000;stroke-width:1px;stroke-linecap:butt;stroke-linejoin:miter;stroke-opacity:1"
       d="m 1131.4162,-213.65931 20.6606,52.4916"
       id="path147" />
    <path
       style="fill:none;stroke:#000000;stroke-width:1px;stroke-linecap:butt;stroke-linejoin:miter;stroke-opacity:1"
       d="m 1119.3807,-207.33342 32.6961,46.16571"
       id="path149" />
    <path
       style="fill:#000000;stroke-width:1.13636"
       d="m 1137.2169,-184.21782 -7.4735,-10.44062 1.8351,-5.48573 1.8352,-5.48573 6.0254,15.54809 c 3.3139,8.55145 5.8512,15.71831 5.6384,15.92635 -0.2129,0.20804 -3.7501,-4.32003 -7.8606,-10.06236 z"
       id="path151" />
    <path
       style="fill:none;stroke:#000000;stroke-width:1px;stroke-linecap:butt;stroke-linejoin:miter;stroke-opacity:1"
       d="m 1099.9734,-168.92463 -4.3373,7.5553"
       id="path153" />
    <rect
       style="fill:#000000"
       id="rect157"
       width="17.07575"
       height="14.27463"
       x="1089.8398"
       y="-169.36198" />
    <path
       id="path37"
       d="m 205.65737,202.28896 c -0.62243,-3.06379 -1.13169,-11.30334 -1.13169,-18.31013 v -12.7396 l 46.01302,-43.37823 46.01303,-43.378242 15.23775,0.130498 c 8.38076,0.07178 18.70938,0.665963 22.9525,1.32042 l 7.71474,1.189922 -66.60318,59.859022 c -36.63175,32.92247 -67.15696,60.08805 -67.83383,60.36795 -0.67686,0.2799 -1.73991,-1.99783 -2.36234,-5.06161 z"
       style="fill:#000000;stroke-width:1.7744" />
    <rect
       y="84.482758"
       x="562.06897"
       height="86.206894"
       width="32.758621"
       id="rect39"
       style="fill:#000000" />
  </g>
</svg>
