<?xml version="1.0" standalone="no"?>
<!DOCTYPE svg PUBLIC "-//W3C//DTD SVG 20010904//EN"
 "http://www.w3.org/TR/2001/REC-SVG-20010904/DTD/svg10.dtd">
<svg version="1.0" xmlns="http://www.w3.org/2000/svg"
 width="1076.000000pt" height="550.000000pt" viewBox="0 0 1076.000000 550.000000"
 preserveAspectRatio="xMidYMid meet">

<g transform="translate(0.000000,550.000000) scale(0.100000,-0.100000)"
fill="#000000" stroke="none">
<path d="M0 2750 l0 -2750 5380 0 5380 0 0 2750 0 2750 -5380 0 -5380 0 0
-2750z m1963 2552 c-281 -220 -464 -371 -468 -387 -3 -11 -9 -332 -13 -714
l-7 -694 -290 -79 c-159 -43 -348 -93 -419 -112 l-129 -35 6 845 6 844 -222
167 c-122 91 -226 170 -231 174 -6 5 384 9 890 9 854 0 898 -1 877 -18z m2630
-10 c-248 -194 -463 -370 -467 -382 -3 -8 -8 -214 -12 -457 l-7 -443 -31 0
c-17 0 -195 11 -396 25 -201 14 -376 25 -389 25 l-23 0 7 449 8 449 -224 167
c-123 92 -228 172 -233 176 -6 5 384 9 890 9 854 0 898 -1 877 -18z m3042
-1046 c1152 -125 1720 -187 1722 -190 7 -6 -122 -142 -141 -148 -11 -4 -336
-32 -720 -63 -406 -32 -705 -60 -713 -67 -21 -17 -16 -29 33 -79 l47 -48 -34
-5 c-19 -3 -595 -60 -1280 -126 -686 -66 -1254 -123 -1263 -126 -9 -3 -16 -10
-16 -15 0 -5 43 -51 96 -102 l97 -93 -1079 -143 c-593 -79 -1126 -150 -1183
-158 -100 -13 -137 -26 -126 -43 6 -10 174 -99 225 -120 19 -8 37 -17 40 -21
3 -3 26 -17 52 -30 l48 -24 -293 -97 c-2575 -852 -2509 -831 -2524 -815 -13
13 -447 1387 -440 1393 1 1 99 27 217 58 118 31 244 65 280 76 36 10 492 134
1015 275 522 141 952 259 954 261 10 9 -26 27 -346 170 -183 82 -331 149 -330
150 1 1 229 -13 507 -32 278 -18 582 -38 675 -43 94 -6 334 -22 535 -36 201
-14 437 -30 525 -35 88 -6 333 -21 544 -35 211 -14 386 -23 389 -20 16 15 -27
44 -198 136 l-185 99 55 0 c30 -1 681 -9 1445 -19 765 -11 1394 -15 1399 -11
14 14 -1 27 -94 80 -50 28 -90 53 -90 56 0 6 11 5 155 -10z m1872 -313 c-3 -2
-40 -7 -83 -10 l-78 -6 54 62 53 61 29 -51 c16 -28 27 -53 25 -56z m77 101
c13 -5 14 -9 5 -20 -9 -11 -15 -11 -25 -3 -27 22 -14 36 20 23z m146 -26 c0
-7 3 -23 6 -35 5 -17 0 -22 -26 -28 -17 -4 -33 -5 -36 -2 -9 9 27 77 41 77 8
0 15 -6 15 -12z m170 -33 c0 -8 -7 -15 -16 -15 -14 0 -14 3 -4 15 7 8 14 15
16 15 2 0 4 -7 4 -15z m160 5 c20 -6 14 -8 -27 -9 -29 -1 -53 3 -53 9 0 12 44
12 80 0z m-238 -334 c7 5 8 2 4 -5 -5 -7 -3 -25 4 -41 11 -26 17 -29 64 -32
l51 -3 -38 -24 c-40 -25 -43 -38 -21 -96 7 -17 3 -17 -37 7 l-44 26 -44 -26
c-41 -24 -44 -24 -37 -7 22 58 19 71 -21 96 l-38 24 54 5 c54 5 54 5 69 50 9
25 17 39 20 32 2 -6 9 -9 14 -6z m-368 -198 l51 -3 -38 -24 c-40 -25 -43 -38
-21 -96 7 -17 3 -17 -37 7 l-44 26 -44 -26 c-41 -24 -44 -24 -37 -7 22 58 19
71 -21 96 l-38 24 54 5 c54 5 54 5 69 50 l15 45 20 -47 c19 -47 19 -47 71 -50z
m807 32 c7 -19 18 -30 29 -30 26 0 34 -17 14 -28 -14 -8 -15 -14 -6 -41 13
-36 10 -37 -24 -15 -21 15 -28 15 -52 3 -15 -7 -30 -15 -34 -17 -4 -2 -3 11 3
28 6 17 10 32 8 34 -2 1 -15 10 -29 19 l-24 17 36 0 c31 0 37 4 47 30 5 17 13
30 16 30 3 0 11 -13 16 -30z m-1252 -120 l36 -1 -27 -15 c-30 -16 -33 -25 -18
-55 12 -22 5 -24 -30 -5 -21 12 -29 12 -52 0 -36 -19 -41 -18 -28 5 15 30 12
39 -17 55 l-28 15 36 1 c31 0 38 4 50 32 l13 31 15 -31 c12 -27 20 -32 50 -32z
m900 -86 c1 -13 46 -24 100 -24 l36 -1 -47 -27 c-53 -30 -55 -34 -33 -85 8
-20 15 -39 15 -42 0 -4 -24 6 -52 22 l-53 28 -50 -27 c-27 -15 -51 -25 -53
-23 -2 1 4 20 12 40 9 21 16 43 16 49 0 6 -21 23 -48 38 l-47 27 36 1 c81 0
94 8 114 63 l19 51 17 -39 c10 -22 18 -45 18 -51z m-437 -284 l60 0 -44 -36
c-23 -20 -44 -40 -46 -44 -2 -5 4 -32 12 -61 9 -29 16 -54 16 -57 0 -2 -21 12
-48 31 l-47 35 -45 -33 c-25 -18 -46 -32 -47 -31 -2 1 4 26 13 55 8 29 14 56
12 61 -2 4 -23 24 -46 44 l-44 36 60 0 60 0 18 66 19 66 19 -66 19 -66 59 0z
m-5362 -1280 l0 -1260 230 -172 230 -173 -444 -3 c-245 -1 -647 -1 -895 0
l-450 3 244 195 245 195 0 1032 0 1032 115 38 c63 20 115 41 115 45 0 5 -52
34 -115 65 l-115 58 0 47 c0 27 1 48 3 49 12 4 780 107 805 108 l32 1 0 -1260z
m-2630 -500 l0 -750 230 -172 230 -173 -444 -3 c-245 -1 -647 -1 -895 0 l-450
3 231 185 c127 102 237 186 245 188 11 3 13 112 13 602 l0 598 408 135 c224
74 413 135 420 136 9 1 12 -155 12 -749z"/>
</g>
</svg>
